<?xml version="1.0" encoding="UTF-8" standalone="no"?>
<!DOCTYPE svg PUBLIC "-//W3C//DTD SVG 1.1//EN"
 "http://www.w3.org/Graphics/SVG/1.1/DTD/svg11.dtd">
<!-- Generated by graphviz version 14.1.5 (20260411.2331)
 -->
<!-- Pages: 1 -->
<svg width="2561pt" height="570pt"
 viewBox="0.00 0.00 2561.00 570.00" xmlns="http://www.w3.org/2000/svg" xmlns:xlink="http://www.w3.org/1999/xlink">
<g id="graph0" class="graph" transform="scale(1 1) rotate(0) translate(4 566)">
<polygon fill="white" stroke="none" points="-4,4 -4,-566 2556.75,-566 2556.75,4 -4,4"/>
<!-- 1543987701008 -->
<g id="node1" class="node">
<title>1543987701008</title>
<path fill="#fff59d" stroke="black" d="M1678.75,-562C1678.75,-562 1336.5,-562 1336.5,-562 1330.5,-562 1324.5,-556 1324.5,-550 1324.5,-550 1324.5,-503 1324.5,-503 1324.5,-497 1330.5,-491 1336.5,-491 1336.5,-491 1678.75,-491 1678.75,-491 1684.75,-491 1690.75,-497 1690.75,-503 1690.75,-503 1690.75,-550 1690.75,-550 1690.75,-556 1684.75,-562 1678.75,-562"/>
<text xml:space="preserve" text-anchor="middle" x="1507.62" y="-544.7" font-family="Arial" font-size="14.00">mean concave points &lt;= 0.051</text>
<text xml:space="preserve" text-anchor="middle" x="1507.62" y="-528.95" font-family="Arial" font-size="14.00">Gini: 0.467</text>
<text xml:space="preserve" text-anchor="middle" x="1507.62" y="-513.2" font-family="Arial" font-size="14.00">Samples: 455</text>
<text xml:space="preserve" text-anchor="middle" x="1507.62" y="-497.45" font-family="Arial" font-size="14.00">Dist: {np.int64(0): np.int64(169), np.int64(1): np.int64(286)}</text>
</g>
<!-- 1543987737488 -->
<g id="node2" class="node">
<title>1543987737488</title>
<path fill="#b3e5fc" stroke="black" d="M1394,-439.25C1394,-439.25 1059.25,-439.25 1059.25,-439.25 1053.25,-439.25 1047.25,-433.25 1047.25,-427.25 1047.25,-427.25 1047.25,-380.25 1047.25,-380.25 1047.25,-374.25 1053.25,-368.25 1059.25,-368.25 1059.25,-368.25 1394,-368.25 1394,-368.25 1400,-368.25 1406,-374.25 1406,-380.25 1406,-380.25 1406,-427.25 1406,-427.25 1406,-433.25 1400,-439.25 1394,-439.25"/>
<text xml:space="preserve" text-anchor="middle" x="1226.62" y="-421.95" font-family="Arial" font-size="14.00">worst radius &lt;= 16.830</text>
<text xml:space="preserve" text-anchor="middle" x="1226.62" y="-406.2" font-family="Arial" font-size="14.00">Gini: 0.107</text>
<text xml:space="preserve" text-anchor="middle" x="1226.62" y="-390.45" font-family="Arial" font-size="14.00">Samples: 282</text>
<text xml:space="preserve" text-anchor="middle" x="1226.62" y="-374.7" font-family="Arial" font-size="14.00">Dist: {np.int64(0): np.int64(16), np.int64(1): np.int64(266)}</text>
</g>
<!-- 1543987701008&#45;&gt;1543987737488 -->
<g id="edge1" class="edge">
<title>1543987701008&#45;&gt;1543987737488</title>
<path fill="none" stroke="black" d="M1426.35,-490.57C1392.42,-475.99 1352.84,-458.99 1317.92,-443.98"/>
<polygon fill="black" stroke="black" points="1319.68,-440.93 1309.11,-440.19 1316.92,-447.36 1319.68,-440.93"/>
<text xml:space="preserve" text-anchor="middle" x="1397.82" y="-459.7" font-family="Arial" font-size="14.00">True</text>
</g>
<!-- 1543988614720 -->
<g id="node15" class="node">
<title>1543988614720</title>
<path fill="#fff59d" stroke="black" d="M2001,-439.25C2001,-439.25 1666.25,-439.25 1666.25,-439.25 1660.25,-439.25 1654.25,-433.25 1654.25,-427.25 1654.25,-427.25 1654.25,-380.25 1654.25,-380.25 1654.25,-374.25 1660.25,-368.25 1666.25,-368.25 1666.25,-368.25 2001,-368.25 2001,-368.25 2007,-368.25 2013,-374.25 2013,-380.25 2013,-380.25 2013,-427.25 2013,-427.25 2013,-433.25 2007,-439.25 2001,-439.25"/>
<text xml:space="preserve" text-anchor="middle" x="1833.62" y="-421.95" font-family="Arial" font-size="14.00">worst concave points &lt;= 0.147</text>
<text xml:space="preserve" text-anchor="middle" x="1833.62" y="-406.2" font-family="Arial" font-size="14.00">Gini: 0.204</text>
<text xml:space="preserve" text-anchor="middle" x="1833.62" y="-390.45" font-family="Arial" font-size="14.00">Samples: 173</text>
<text xml:space="preserve" text-anchor="middle" x="1833.62" y="-374.7" font-family="Arial" font-size="14.00">Dist: {np.int64(0): np.int64(153), np.int64(1): np.int64(20)}</text>
</g>
<!-- 1543987701008&#45;&gt;1543988614720 -->
<g id="edge14" class="edge">
<title>1543987701008&#45;&gt;1543988614720</title>
<path fill="none" stroke="black" d="M1601.92,-490.57C1641.53,-475.9 1687.78,-458.77 1728.49,-443.69"/>
<polygon fill="black" stroke="black" points="1729.68,-446.98 1737.84,-440.23 1727.25,-440.42 1729.68,-446.98"/>
<text xml:space="preserve" text-anchor="middle" x="1706.64" y="-459.7" font-family="Arial" font-size="14.00">False</text>
</g>
<!-- 1543987737168 -->
<g id="node3" class="node">
<title>1543987737168</title>
<path fill="#b3e5fc" stroke="black" d="M961.25,-316.5C961.25,-316.5 634,-316.5 634,-316.5 628,-316.5 622,-310.5 622,-304.5 622,-304.5 622,-257.5 622,-257.5 622,-251.5 628,-245.5 634,-245.5 634,-245.5 961.25,-245.5 961.25,-245.5 967.25,-245.5 973.25,-251.5 973.25,-257.5 973.25,-257.5 973.25,-304.5 973.25,-304.5 973.25,-310.5 967.25,-316.5 961.25,-316.5"/>
<text xml:space="preserve" text-anchor="middle" x="797.62" y="-299.2" font-family="Arial" font-size="14.00">radius error &lt;= 0.626</text>
<text xml:space="preserve" text-anchor="middle" x="797.62" y="-283.45" font-family="Arial" font-size="14.00">Gini: 0.037</text>
<text xml:space="preserve" text-anchor="middle" x="797.62" y="-267.7" font-family="Arial" font-size="14.00">Samples: 263</text>
<text xml:space="preserve" text-anchor="middle" x="797.62" y="-251.95" font-family="Arial" font-size="14.00">Dist: {np.int64(0): np.int64(5), np.int64(1): np.int64(258)}</text>
</g>
<!-- 1543987737488&#45;&gt;1543987737168 -->
<g id="edge2" class="edge">
<title>1543987737488&#45;&gt;1543987737168</title>
<path fill="none" stroke="black" d="M1102.54,-367.82C1049.3,-352.84 986.96,-335.29 932.57,-319.98"/>
<polygon fill="black" stroke="black" points="933.83,-316.7 923.26,-317.36 931.94,-323.44 933.83,-316.7"/>
<text xml:space="preserve" text-anchor="middle" x="1051.69" y="-336.95" font-family="Arial" font-size="14.00">True</text>
</g>
<!-- 1543987978064 -->
<g id="node10" class="node">
<title>1543987978064</title>
<path fill="#fff59d" stroke="black" d="M1386.12,-316.5C1386.12,-316.5 1067.12,-316.5 1067.12,-316.5 1061.12,-316.5 1055.12,-310.5 1055.12,-304.5 1055.12,-304.5 1055.12,-257.5 1055.12,-257.5 1055.12,-251.5 1061.12,-245.5 1067.12,-245.5 1067.12,-245.5 1386.12,-245.5 1386.12,-245.5 1392.12,-245.5 1398.12,-251.5 1398.12,-257.5 1398.12,-257.5 1398.12,-304.5 1398.12,-304.5 1398.12,-310.5 1392.12,-316.5 1386.12,-316.5"/>
<text xml:space="preserve" text-anchor="middle" x="1226.62" y="-299.2" font-family="Arial" font-size="14.00">mean texture &lt;= 16.190</text>
<text xml:space="preserve" text-anchor="middle" x="1226.62" y="-283.45" font-family="Arial" font-size="14.00">Gini: 0.488</text>
<text xml:space="preserve" text-anchor="middle" x="1226.62" y="-267.7" font-family="Arial" font-size="14.00">Samples: 19</text>
<text xml:space="preserve" text-anchor="middle" x="1226.62" y="-251.95" font-family="Arial" font-size="14.00">Dist: {np.int64(0): np.int64(11), np.int64(1): np.int64(8)}</text>
</g>
<!-- 1543987737488&#45;&gt;1543987978064 -->
<g id="edge9" class="edge">
<title>1543987737488&#45;&gt;1543987978064</title>
<path fill="none" stroke="black" d="M1226.62,-367.82C1226.62,-355.43 1226.62,-341.29 1226.62,-328.11"/>
<polygon fill="black" stroke="black" points="1230.13,-328.36 1226.63,-318.36 1223.13,-328.36 1230.13,-328.36"/>
<text xml:space="preserve" text-anchor="middle" x="1243.12" y="-336.95" font-family="Arial" font-size="14.00">False</text>
</g>
<!-- 1543988413408 -->
<g id="node4" class="node">
<title>1543988413408</title>
<path fill="#b3e5fc" stroke="black" d="M599.25,-193.75C599.25,-193.75 272,-193.75 272,-193.75 266,-193.75 260,-187.75 260,-181.75 260,-181.75 260,-134.75 260,-134.75 260,-128.75 266,-122.75 272,-122.75 272,-122.75 599.25,-122.75 599.25,-122.75 605.25,-122.75 611.25,-128.75 611.25,-134.75 611.25,-134.75 611.25,-181.75 611.25,-181.75 611.25,-187.75 605.25,-193.75 599.25,-193.75"/>
<text xml:space="preserve" text-anchor="middle" x="435.62" y="-176.45" font-family="Arial" font-size="14.00">worst smoothness &lt;= 0.178</text>
<text xml:space="preserve" text-anchor="middle" x="435.62" y="-160.7" font-family="Arial" font-size="14.00">Gini: 0.023</text>
<text xml:space="preserve" text-anchor="middle" x="435.62" y="-144.95" font-family="Arial" font-size="14.00">Samples: 260</text>
<text xml:space="preserve" text-anchor="middle" x="435.62" y="-129.2" font-family="Arial" font-size="14.00">Dist: {np.int64(0): np.int64(3), np.int64(1): np.int64(257)}</text>
</g>
<!-- 1543987737168&#45;&gt;1543988413408 -->
<g id="edge3" class="edge">
<title>1543987737168&#45;&gt;1543988413408</title>
<path fill="none" stroke="black" d="M692.92,-245.07C648.55,-230.28 596.7,-212.98 551.22,-197.81"/>
<polygon fill="black" stroke="black" points="552.44,-194.52 541.84,-194.68 550.22,-201.17 552.44,-194.52"/>
<text xml:space="preserve" text-anchor="middle" x="652.17" y="-214.2" font-family="Arial" font-size="14.00">True</text>
</g>
<!-- 1543984133216 -->
<g id="node7" class="node">
<title>1543984133216</title>
<path fill="#fff59d" stroke="black" d="M953.75,-193.75C953.75,-193.75 641.5,-193.75 641.5,-193.75 635.5,-193.75 629.5,-187.75 629.5,-181.75 629.5,-181.75 629.5,-134.75 629.5,-134.75 629.5,-128.75 635.5,-122.75 641.5,-122.75 641.5,-122.75 953.75,-122.75 953.75,-122.75 959.75,-122.75 965.75,-128.75 965.75,-134.75 965.75,-134.75 965.75,-181.75 965.75,-181.75 965.75,-187.75 959.75,-193.75 953.75,-193.75"/>
<text xml:space="preserve" text-anchor="middle" x="797.62" y="-176.45" font-family="Arial" font-size="14.00">mean smoothness &lt;= 0.091</text>
<text xml:space="preserve" text-anchor="middle" x="797.62" y="-160.7" font-family="Arial" font-size="14.00">Gini: 0.444</text>
<text xml:space="preserve" text-anchor="middle" x="797.62" y="-144.95" font-family="Arial" font-size="14.00">Samples: 3</text>
<text xml:space="preserve" text-anchor="middle" x="797.62" y="-129.2" font-family="Arial" font-size="14.00">Dist: {np.int64(0): np.int64(2), np.int64(1): np.int64(1)}</text>
</g>
<!-- 1543987737168&#45;&gt;1543984133216 -->
<g id="edge6" class="edge">
<title>1543987737168&#45;&gt;1543984133216</title>
<path fill="none" stroke="black" d="M797.62,-245.07C797.62,-232.68 797.62,-218.54 797.62,-205.36"/>
<polygon fill="black" stroke="black" points="801.13,-205.61 797.63,-195.61 794.13,-205.61 801.13,-205.61"/>
<text xml:space="preserve" text-anchor="middle" x="814.12" y="-214.2" font-family="Arial" font-size="14.00">False</text>
</g>
<!-- 1543988414928 -->
<g id="node5" class="node">
<title>1543988414928</title>
<path fill="#90ee90" stroke="black" d="M339.25,-71C339.25,-71 12,-71 12,-71 6,-71 0,-65 0,-59 0,-59 0,-12 0,-12 0,-6 6,0 12,0 12,0 339.25,0 339.25,0 345.25,0 351.25,-6 351.25,-12 351.25,-12 351.25,-59 351.25,-59 351.25,-65 345.25,-71 339.25,-71"/>
<text xml:space="preserve" text-anchor="middle" x="175.62" y="-53.7" font-family="Arial" font-size="14.00">Leaf: 1</text>
<text xml:space="preserve" text-anchor="middle" x="175.62" y="-37.95" font-family="Arial" font-size="14.00">Gini: 0.015</text>
<text xml:space="preserve" text-anchor="middle" x="175.62" y="-22.2" font-family="Arial" font-size="14.00">Samples: 259</text>
<text xml:space="preserve" text-anchor="middle" x="175.62" y="-6.45" font-family="Arial" font-size="14.00">Dist: {np.int64(0): np.int64(2), np.int64(1): np.int64(257)}</text>
</g>
<!-- 1543988413408&#45;&gt;1543988414928 -->
<g id="edge4" class="edge">
<title>1543988413408&#45;&gt;1543988414928</title>
<path fill="none" stroke="black" d="M360.42,-122.32C329.3,-107.87 293.04,-91.03 260.93,-76.12"/>
<polygon fill="black" stroke="black" points="262.58,-73.02 252.03,-71.98 259.63,-79.37 262.58,-73.02"/>
<text xml:space="preserve" text-anchor="middle" x="335.07" y="-91.45" font-family="Arial" font-size="14.00">True</text>
</g>
<!-- 1543987722672 -->
<g id="node6" class="node">
<title>1543987722672</title>
<path fill="#90ee90" stroke="black" d="M549.75,-71C549.75,-71 381.5,-71 381.5,-71 375.5,-71 369.5,-65 369.5,-59 369.5,-59 369.5,-12 369.5,-12 369.5,-6 375.5,0 381.5,0 381.5,0 549.75,0 549.75,0 555.75,0 561.75,-6 561.75,-12 561.75,-12 561.75,-59 561.75,-59 561.75,-65 555.75,-71 549.75,-71"/>
<text xml:space="preserve" text-anchor="middle" x="465.62" y="-53.7" font-family="Arial" font-size="14.00">Leaf: 0</text>
<text xml:space="preserve" text-anchor="middle" x="465.62" y="-37.95" font-family="Arial" font-size="14.00">Gini: 0.000</text>
<text xml:space="preserve" text-anchor="middle" x="465.62" y="-22.2" font-family="Arial" font-size="14.00">Samples: 1</text>
<text xml:space="preserve" text-anchor="middle" x="465.62" y="-6.45" font-family="Arial" font-size="14.00">Dist: {np.int64(0): np.int64(1)}</text>
</g>
<!-- 1543988413408&#45;&gt;1543987722672 -->
<g id="edge5" class="edge">
<title>1543988413408&#45;&gt;1543987722672</title>
<path fill="none" stroke="black" d="M444.3,-122.32C447.41,-109.81 450.96,-95.51 454.27,-82.21"/>
<polygon fill="black" stroke="black" points="457.59,-83.37 456.6,-72.82 450.79,-81.68 457.59,-83.37"/>
<text xml:space="preserve" text-anchor="middle" x="468.92" y="-91.45" font-family="Arial" font-size="14.00">False</text>
</g>
<!-- 1543987913024 -->
<g id="node8" class="node">
<title>1543987913024</title>
<path fill="#90ee90" stroke="black" d="M817.75,-71C817.75,-71 649.5,-71 649.5,-71 643.5,-71 637.5,-65 637.5,-59 637.5,-59 637.5,-12 637.5,-12 637.5,-6 643.5,0 649.5,0 649.5,0 817.75,0 817.75,0 823.75,0 829.75,-6 829.75,-12 829.75,-12 829.75,-59 829.75,-59 829.75,-65 823.75,-71 817.75,-71"/>
<text xml:space="preserve" text-anchor="middle" x="733.62" y="-53.7" font-family="Arial" font-size="14.00">Leaf: 1</text>
<text xml:space="preserve" text-anchor="middle" x="733.62" y="-37.95" font-family="Arial" font-size="14.00">Gini: 0.000</text>
<text xml:space="preserve" text-anchor="middle" x="733.62" y="-22.2" font-family="Arial" font-size="14.00">Samples: 1</text>
<text xml:space="preserve" text-anchor="middle" x="733.62" y="-6.45" font-family="Arial" font-size="14.00">Dist: {np.int64(1): np.int64(1)}</text>
</g>
<!-- 1543984133216&#45;&gt;1543987913024 -->
<g id="edge7" class="edge">
<title>1543984133216&#45;&gt;1543987913024</title>
<path fill="none" stroke="black" d="M779.11,-122.32C772.35,-109.56 764.6,-94.93 757.43,-81.42"/>
<polygon fill="black" stroke="black" points="760.58,-79.88 752.8,-72.68 754.39,-83.16 760.58,-79.88"/>
<text xml:space="preserve" text-anchor="middle" x="783.33" y="-91.45" font-family="Arial" font-size="14.00">True</text>
</g>
<!-- 1543987979856 -->
<g id="node9" class="node">
<title>1543987979856</title>
<path fill="#90ee90" stroke="black" d="M1027.75,-71C1027.75,-71 859.5,-71 859.5,-71 853.5,-71 847.5,-65 847.5,-59 847.5,-59 847.5,-12 847.5,-12 847.5,-6 853.5,0 859.5,0 859.5,0 1027.75,0 1027.75,0 1033.75,0 1039.75,-6 1039.75,-12 1039.75,-12 1039.75,-59 1039.75,-59 1039.75,-65 1033.75,-71 1027.75,-71"/>
<text xml:space="preserve" text-anchor="middle" x="943.62" y="-53.7" font-family="Arial" font-size="14.00">Leaf: 0</text>
<text xml:space="preserve" text-anchor="middle" x="943.62" y="-37.95" font-family="Arial" font-size="14.00">Gini: 0.000</text>
<text xml:space="preserve" text-anchor="middle" x="943.62" y="-22.2" font-family="Arial" font-size="14.00">Samples: 2</text>
<text xml:space="preserve" text-anchor="middle" x="943.62" y="-6.45" font-family="Arial" font-size="14.00">Dist: {np.int64(0): np.int64(2)}</text>
</g>
<!-- 1543984133216&#45;&gt;1543987979856 -->
<g id="edge8" class="edge">
<title>1543984133216&#45;&gt;1543987979856</title>
<path fill="none" stroke="black" d="M839.85,-122.32C856.35,-108.68 875.41,-92.92 892.66,-78.65"/>
<polygon fill="black" stroke="black" points="894.85,-81.38 900.32,-72.31 890.39,-75.99 894.85,-81.38"/>
<text xml:space="preserve" text-anchor="middle" x="895.87" y="-91.45" font-family="Arial" font-size="14.00">False</text>
</g>
<!-- 1543988188640 -->
<g id="node11" class="node">
<title>1543988188640</title>
<path fill="#90ee90" stroke="black" d="M1163.75,-193.75C1163.75,-193.75 995.5,-193.75 995.5,-193.75 989.5,-193.75 983.5,-187.75 983.5,-181.75 983.5,-181.75 983.5,-134.75 983.5,-134.75 983.5,-128.75 989.5,-122.75 995.5,-122.75 995.5,-122.75 1163.75,-122.75 1163.75,-122.75 1169.75,-122.75 1175.75,-128.75 1175.75,-134.75 1175.75,-134.75 1175.75,-181.75 1175.75,-181.75 1175.75,-187.75 1169.75,-193.75 1163.75,-193.75"/>
<text xml:space="preserve" text-anchor="middle" x="1079.62" y="-176.45" font-family="Arial" font-size="14.00">Leaf: 1</text>
<text xml:space="preserve" text-anchor="middle" x="1079.62" y="-160.7" font-family="Arial" font-size="14.00">Gini: 0.000</text>
<text xml:space="preserve" text-anchor="middle" x="1079.62" y="-144.95" font-family="Arial" font-size="14.00">Samples: 6</text>
<text xml:space="preserve" text-anchor="middle" x="1079.62" y="-129.2" font-family="Arial" font-size="14.00">Dist: {np.int64(1): np.int64(6)}</text>
</g>
<!-- 1543987978064&#45;&gt;1543988188640 -->
<g id="edge10" class="edge">
<title>1543987978064&#45;&gt;1543988188640</title>
<path fill="none" stroke="black" d="M1184.11,-245.07C1167.5,-231.43 1148.31,-215.67 1130.94,-201.4"/>
<polygon fill="black" stroke="black" points="1133.17,-198.7 1123.22,-195.06 1128.72,-204.11 1133.17,-198.7"/>
<text xml:space="preserve" text-anchor="middle" x="1175.8" y="-214.2" font-family="Arial" font-size="14.00">True</text>
</g>
<!-- 1543988188880 -->
<g id="node12" class="node">
<title>1543988188880</title>
<path fill="#fff59d" stroke="black" d="M1525.12,-193.75C1525.12,-193.75 1206.12,-193.75 1206.12,-193.75 1200.12,-193.75 1194.12,-187.75 1194.12,-181.75 1194.12,-181.75 1194.12,-134.75 1194.12,-134.75 1194.12,-128.75 1200.12,-122.75 1206.12,-122.75 1206.12,-122.75 1525.12,-122.75 1525.12,-122.75 1531.12,-122.75 1537.12,-128.75 1537.12,-134.75 1537.12,-134.75 1537.12,-181.75 1537.12,-181.75 1537.12,-187.75 1531.12,-193.75 1525.12,-193.75"/>
<text xml:space="preserve" text-anchor="middle" x="1365.62" y="-176.45" font-family="Arial" font-size="14.00">concave points error &lt;= 0.010</text>
<text xml:space="preserve" text-anchor="middle" x="1365.62" y="-160.7" font-family="Arial" font-size="14.00">Gini: 0.260</text>
<text xml:space="preserve" text-anchor="middle" x="1365.62" y="-144.95" font-family="Arial" font-size="14.00">Samples: 13</text>
<text xml:space="preserve" text-anchor="middle" x="1365.62" y="-129.2" font-family="Arial" font-size="14.00">Dist: {np.int64(0): np.int64(11), np.int64(1): np.int64(2)}</text>
</g>
<!-- 1543987978064&#45;&gt;1543988188880 -->
<g id="edge11" class="edge">
<title>1543987978064&#45;&gt;1543988188880</title>
<path fill="none" stroke="black" d="M1266.83,-245.07C1282.53,-231.43 1300.68,-215.67 1317.1,-201.4"/>
<polygon fill="black" stroke="black" points="1319.11,-204.29 1324.37,-195.09 1314.52,-199.01 1319.11,-204.29"/>
<text xml:space="preserve" text-anchor="middle" x="1320.95" y="-214.2" font-family="Arial" font-size="14.00">False</text>
</g>
<!-- 1543988759024 -->
<g id="node13" class="node">
<title>1543988759024</title>
<path fill="#90ee90" stroke="black" d="M1274.12,-71C1274.12,-71 1099.12,-71 1099.12,-71 1093.12,-71 1087.12,-65 1087.12,-59 1087.12,-59 1087.12,-12 1087.12,-12 1087.12,-6 1093.12,0 1099.12,0 1099.12,0 1274.12,0 1274.12,0 1280.12,0 1286.12,-6 1286.12,-12 1286.12,-12 1286.12,-59 1286.12,-59 1286.12,-65 1280.12,-71 1274.12,-71"/>
<text xml:space="preserve" text-anchor="middle" x="1186.62" y="-53.7" font-family="Arial" font-size="14.00">Leaf: 0</text>
<text xml:space="preserve" text-anchor="middle" x="1186.62" y="-37.95" font-family="Arial" font-size="14.00">Gini: 0.000</text>
<text xml:space="preserve" text-anchor="middle" x="1186.62" y="-22.2" font-family="Arial" font-size="14.00">Samples: 11</text>
<text xml:space="preserve" text-anchor="middle" x="1186.62" y="-6.45" font-family="Arial" font-size="14.00">Dist: {np.int64(0): np.int64(11)}</text>
</g>
<!-- 1543988188880&#45;&gt;1543988759024 -->
<g id="edge12" class="edge">
<title>1543988188880&#45;&gt;1543988759024</title>
<path fill="none" stroke="black" d="M1313.85,-122.32C1293.16,-108.37 1269.19,-92.19 1247.66,-77.67"/>
<polygon fill="black" stroke="black" points="1249.79,-74.88 1239.54,-72.19 1245.87,-80.69 1249.79,-74.88"/>
<text xml:space="preserve" text-anchor="middle" x="1300.72" y="-91.45" font-family="Arial" font-size="14.00">True</text>
</g>
<!-- 1543988759248 -->
<g id="node14" class="node">
<title>1543988759248</title>
<path fill="#90ee90" stroke="black" d="M1484.75,-71C1484.75,-71 1316.5,-71 1316.5,-71 1310.5,-71 1304.5,-65 1304.5,-59 1304.5,-59 1304.5,-12 1304.5,-12 1304.5,-6 1310.5,0 1316.5,0 1316.5,0 1484.75,0 1484.75,0 1490.75,0 1496.75,-6 1496.75,-12 1496.75,-12 1496.75,-59 1496.75,-59 1496.75,-65 1490.75,-71 1484.75,-71"/>
<text xml:space="preserve" text-anchor="middle" x="1400.62" y="-53.7" font-family="Arial" font-size="14.00">Leaf: 1</text>
<text xml:space="preserve" text-anchor="middle" x="1400.62" y="-37.95" font-family="Arial" font-size="14.00">Gini: 0.000</text>
<text xml:space="preserve" text-anchor="middle" x="1400.62" y="-22.2" font-family="Arial" font-size="14.00">Samples: 2</text>
<text xml:space="preserve" text-anchor="middle" x="1400.62" y="-6.45" font-family="Arial" font-size="14.00">Dist: {np.int64(1): np.int64(2)}</text>
</g>
<!-- 1543988188880&#45;&gt;1543988759248 -->
<g id="edge13" class="edge">
<title>1543988188880&#45;&gt;1543988759248</title>
<path fill="none" stroke="black" d="M1375.75,-122.32C1379.38,-109.81 1383.52,-95.51 1387.37,-82.21"/>
<polygon fill="black" stroke="black" points="1390.68,-83.38 1390.1,-72.8 1383.96,-81.43 1390.68,-83.38"/>
<text xml:space="preserve" text-anchor="middle" x="1401.72" y="-91.45" font-family="Arial" font-size="14.00">False</text>
</g>
<!-- 1543986904336 -->
<g id="node16" class="node">
<title>1543986904336</title>
<path fill="#fff59d" stroke="black" d="M1997.25,-316.5C1997.25,-316.5 1670,-316.5 1670,-316.5 1664,-316.5 1658,-310.5 1658,-304.5 1658,-304.5 1658,-257.5 1658,-257.5 1658,-251.5 1664,-245.5 1670,-245.5 1670,-245.5 1997.25,-245.5 1997.25,-245.5 2003.25,-245.5 2009.25,-251.5 2009.25,-257.5 2009.25,-257.5 2009.25,-304.5 2009.25,-304.5 2009.25,-310.5 2003.25,-316.5 1997.25,-316.5"/>
<text xml:space="preserve" text-anchor="middle" x="1833.62" y="-299.2" font-family="Arial" font-size="14.00">worst perimeter &lt;= 115.250</text>
<text xml:space="preserve" text-anchor="middle" x="1833.62" y="-283.45" font-family="Arial" font-size="14.00">Gini: 0.500</text>
<text xml:space="preserve" text-anchor="middle" x="1833.62" y="-267.7" font-family="Arial" font-size="14.00">Samples: 35</text>
<text xml:space="preserve" text-anchor="middle" x="1833.62" y="-251.95" font-family="Arial" font-size="14.00">Dist: {np.int64(0): np.int64(17), np.int64(1): np.int64(18)}</text>
</g>
<!-- 1543988614720&#45;&gt;1543986904336 -->
<g id="edge15" class="edge">
<title>1543988614720&#45;&gt;1543986904336</title>
<path fill="none" stroke="black" d="M1833.62,-367.82C1833.62,-355.43 1833.62,-341.29 1833.62,-328.11"/>
<polygon fill="black" stroke="black" points="1837.13,-328.36 1833.63,-318.36 1830.13,-328.36 1837.13,-328.36"/>
<text xml:space="preserve" text-anchor="middle" x="1847.5" y="-336.95" font-family="Arial" font-size="14.00">True</text>
</g>
<!-- 1543988437200 -->
<g id="node21" class="node">
<title>1543988437200</title>
<path fill="#b3e5fc" stroke="black" d="M2402.25,-316.5C2402.25,-316.5 2075,-316.5 2075,-316.5 2069,-316.5 2063,-310.5 2063,-304.5 2063,-304.5 2063,-257.5 2063,-257.5 2063,-251.5 2069,-245.5 2075,-245.5 2075,-245.5 2402.25,-245.5 2402.25,-245.5 2408.25,-245.5 2414.25,-251.5 2414.25,-257.5 2414.25,-257.5 2414.25,-304.5 2414.25,-304.5 2414.25,-310.5 2408.25,-316.5 2402.25,-316.5"/>
<text xml:space="preserve" text-anchor="middle" x="2238.62" y="-299.2" font-family="Arial" font-size="14.00">concavity error &lt;= 0.136</text>
<text xml:space="preserve" text-anchor="middle" x="2238.62" y="-283.45" font-family="Arial" font-size="14.00">Gini: 0.029</text>
<text xml:space="preserve" text-anchor="middle" x="2238.62" y="-267.7" font-family="Arial" font-size="14.00">Samples: 138</text>
<text xml:space="preserve" text-anchor="middle" x="2238.62" y="-251.95" font-family="Arial" font-size="14.00">Dist: {np.int64(0): np.int64(136), np.int64(1): np.int64(2)}</text>
</g>
<!-- 1543988614720&#45;&gt;1543988437200 -->
<g id="edge20" class="edge">
<title>1543988614720&#45;&gt;1543988437200</title>
<path fill="none" stroke="black" d="M1950.77,-367.82C2000.82,-352.9 2059.39,-335.44 2110.59,-320.17"/>
<polygon fill="black" stroke="black" points="2111.36,-323.6 2119.94,-317.38 2109.36,-316.89 2111.36,-323.6"/>
<text xml:space="preserve" text-anchor="middle" x="2076.87" y="-336.95" font-family="Arial" font-size="14.00">False</text>
</g>
<!-- 1543986903952 -->
<g id="node17" class="node">
<title>1543986903952</title>
<path fill="#fff59d" stroke="black" d="M1886.5,-193.75C1886.5,-193.75 1566.75,-193.75 1566.75,-193.75 1560.75,-193.75 1554.75,-187.75 1554.75,-181.75 1554.75,-181.75 1554.75,-134.75 1554.75,-134.75 1554.75,-128.75 1560.75,-122.75 1566.75,-122.75 1566.75,-122.75 1886.5,-122.75 1886.5,-122.75 1892.5,-122.75 1898.5,-128.75 1898.5,-134.75 1898.5,-134.75 1898.5,-181.75 1898.5,-181.75 1898.5,-187.75 1892.5,-193.75 1886.5,-193.75"/>
<text xml:space="preserve" text-anchor="middle" x="1726.62" y="-176.45" font-family="Arial" font-size="14.00">mean texture &lt;= 21.055</text>
<text xml:space="preserve" text-anchor="middle" x="1726.62" y="-160.7" font-family="Arial" font-size="14.00">Gini: 0.298</text>
<text xml:space="preserve" text-anchor="middle" x="1726.62" y="-144.95" font-family="Arial" font-size="14.00">Samples: 22</text>
<text xml:space="preserve" text-anchor="middle" x="1726.62" y="-129.2" font-family="Arial" font-size="14.00">Dist: {np.int64(0): np.int64(4), np.int64(1): np.int64(18)}</text>
</g>
<!-- 1543986904336&#45;&gt;1543986903952 -->
<g id="edge16" class="edge">
<title>1543986904336&#45;&gt;1543986903952</title>
<path fill="none" stroke="black" d="M1802.68,-245.07C1790.92,-231.81 1777.39,-216.53 1765.02,-202.58"/>
<polygon fill="black" stroke="black" points="1767.76,-200.39 1758.51,-195.23 1762.52,-205.04 1767.76,-200.39"/>
<text xml:space="preserve" text-anchor="middle" x="1800.41" y="-214.2" font-family="Arial" font-size="14.00">True</text>
</g>
<!-- 1543988436880 -->
<g id="node20" class="node">
<title>1543988436880</title>
<path fill="#90ee90" stroke="black" d="M2104.5,-193.75C2104.5,-193.75 1928.75,-193.75 1928.75,-193.75 1922.75,-193.75 1916.75,-187.75 1916.75,-181.75 1916.75,-181.75 1916.75,-134.75 1916.75,-134.75 1916.75,-128.75 1922.75,-122.75 1928.75,-122.75 1928.75,-122.75 2104.5,-122.75 2104.5,-122.75 2110.5,-122.75 2116.5,-128.75 2116.5,-134.75 2116.5,-134.75 2116.5,-181.75 2116.5,-181.75 2116.5,-187.75 2110.5,-193.75 2104.5,-193.75"/>
<text xml:space="preserve" text-anchor="middle" x="2016.62" y="-176.45" font-family="Arial" font-size="14.00">Leaf: 0</text>
<text xml:space="preserve" text-anchor="middle" x="2016.62" y="-160.7" font-family="Arial" font-size="14.00">Gini: 0.000</text>
<text xml:space="preserve" text-anchor="middle" x="2016.62" y="-144.95" font-family="Arial" font-size="14.00">Samples: 13</text>
<text xml:space="preserve" text-anchor="middle" x="2016.62" y="-129.2" font-family="Arial" font-size="14.00">Dist: {np.int64(0): np.int64(13)}</text>
</g>
<!-- 1543986904336&#45;&gt;1543988436880 -->
<g id="edge19" class="edge">
<title>1543986904336&#45;&gt;1543988436880</title>
<path fill="none" stroke="black" d="M1886.56,-245.07C1907.71,-231.12 1932.22,-214.94 1954.23,-200.42"/>
<polygon fill="black" stroke="black" points="1956.13,-203.36 1962.55,-194.93 1952.28,-197.52 1956.13,-203.36"/>
<text xml:space="preserve" text-anchor="middle" x="1952.58" y="-214.2" font-family="Arial" font-size="14.00">False</text>
</g>
<!-- 1543988665648 -->
<g id="node18" class="node">
<title>1543988665648</title>
<path fill="#90ee90" stroke="black" d="M1758.5,-71C1758.5,-71 1582.75,-71 1582.75,-71 1576.75,-71 1570.75,-65 1570.75,-59 1570.75,-59 1570.75,-12 1570.75,-12 1570.75,-6 1576.75,0 1582.75,0 1582.75,0 1758.5,0 1758.5,0 1764.5,0 1770.5,-6 1770.5,-12 1770.5,-12 1770.5,-59 1770.5,-59 1770.5,-65 1764.5,-71 1758.5,-71"/>
<text xml:space="preserve" text-anchor="middle" x="1670.62" y="-53.7" font-family="Arial" font-size="14.00">Leaf: 1</text>
<text xml:space="preserve" text-anchor="middle" x="1670.62" y="-37.95" font-family="Arial" font-size="14.00">Gini: 0.000</text>
<text xml:space="preserve" text-anchor="middle" x="1670.62" y="-22.2" font-family="Arial" font-size="14.00">Samples: 18</text>
<text xml:space="preserve" text-anchor="middle" x="1670.62" y="-6.45" font-family="Arial" font-size="14.00">Dist: {np.int64(1): np.int64(18)}</text>
</g>
<!-- 1543986903952&#45;&gt;1543988665648 -->
<g id="edge17" class="edge">
<title>1543986903952&#45;&gt;1543988665648</title>
<path fill="none" stroke="black" d="M1710.43,-122.32C1704.51,-109.56 1697.72,-94.93 1691.46,-81.42"/>
<polygon fill="black" stroke="black" points="1694.81,-80.32 1687.42,-72.72 1688.46,-83.26 1694.81,-80.32"/>
<text xml:space="preserve" text-anchor="middle" x="1715.85" y="-91.45" font-family="Arial" font-size="14.00">True</text>
</g>
<!-- 1543988666000 -->
<g id="node19" class="node">
<title>1543988666000</title>
<path fill="#90ee90" stroke="black" d="M1968.75,-71C1968.75,-71 1800.5,-71 1800.5,-71 1794.5,-71 1788.5,-65 1788.5,-59 1788.5,-59 1788.5,-12 1788.5,-12 1788.5,-6 1794.5,0 1800.5,0 1800.5,0 1968.75,0 1968.75,0 1974.75,0 1980.75,-6 1980.75,-12 1980.75,-12 1980.75,-59 1980.75,-59 1980.75,-65 1974.75,-71 1968.75,-71"/>
<text xml:space="preserve" text-anchor="middle" x="1884.62" y="-53.7" font-family="Arial" font-size="14.00">Leaf: 0</text>
<text xml:space="preserve" text-anchor="middle" x="1884.62" y="-37.95" font-family="Arial" font-size="14.00">Gini: 0.000</text>
<text xml:space="preserve" text-anchor="middle" x="1884.62" y="-22.2" font-family="Arial" font-size="14.00">Samples: 4</text>
<text xml:space="preserve" text-anchor="middle" x="1884.62" y="-6.45" font-family="Arial" font-size="14.00">Dist: {np.int64(0): np.int64(4)}</text>
</g>
<!-- 1543986903952&#45;&gt;1543988666000 -->
<g id="edge18" class="edge">
<title>1543986903952&#45;&gt;1543988666000</title>
<path fill="none" stroke="black" d="M1772.33,-122.32C1790.34,-108.56 1811.18,-92.63 1829.98,-78.26"/>
<polygon fill="black" stroke="black" points="1832,-81.12 1837.82,-72.27 1827.75,-75.56 1832,-81.12"/>
<text xml:space="preserve" text-anchor="middle" x="1831.58" y="-91.45" font-family="Arial" font-size="14.00">False</text>
</g>
<!-- 1543988041136 -->
<g id="node22" class="node">
<title>1543988041136</title>
<path fill="#90ee90" stroke="black" d="M2330.25,-193.75C2330.25,-193.75 2147,-193.75 2147,-193.75 2141,-193.75 2135,-187.75 2135,-181.75 2135,-181.75 2135,-134.75 2135,-134.75 2135,-128.75 2141,-122.75 2147,-122.75 2147,-122.75 2330.25,-122.75 2330.25,-122.75 2336.25,-122.75 2342.25,-128.75 2342.25,-134.75 2342.25,-134.75 2342.25,-181.75 2342.25,-181.75 2342.25,-187.75 2336.25,-193.75 2330.25,-193.75"/>
<text xml:space="preserve" text-anchor="middle" x="2238.62" y="-176.45" font-family="Arial" font-size="14.00">Leaf: 0</text>
<text xml:space="preserve" text-anchor="middle" x="2238.62" y="-160.7" font-family="Arial" font-size="14.00">Gini: 0.000</text>
<text xml:space="preserve" text-anchor="middle" x="2238.62" y="-144.95" font-family="Arial" font-size="14.00">Samples: 136</text>
<text xml:space="preserve" text-anchor="middle" x="2238.62" y="-129.2" font-family="Arial" font-size="14.00">Dist: {np.int64(0): np.int64(136)}</text>
</g>
<!-- 1543988437200&#45;&gt;1543988041136 -->
<g id="edge21" class="edge">
<title>1543988437200&#45;&gt;1543988041136</title>
<path fill="none" stroke="black" d="M2238.62,-245.07C2238.62,-232.68 2238.62,-218.54 2238.62,-205.36"/>
<polygon fill="black" stroke="black" points="2242.13,-205.61 2238.63,-195.61 2235.13,-205.61 2242.13,-205.61"/>
<text xml:space="preserve" text-anchor="middle" x="2252.5" y="-214.2" font-family="Arial" font-size="14.00">True</text>
</g>
<!-- 1543988040560 -->
<g id="node23" class="node">
<title>1543988040560</title>
<path fill="#90ee90" stroke="black" d="M2540.75,-193.75C2540.75,-193.75 2372.5,-193.75 2372.5,-193.75 2366.5,-193.75 2360.5,-187.75 2360.5,-181.75 2360.5,-181.75 2360.5,-134.75 2360.5,-134.75 2360.5,-128.75 2366.5,-122.75 2372.5,-122.75 2372.5,-122.75 2540.75,-122.75 2540.75,-122.75 2546.75,-122.75 2552.75,-128.75 2552.75,-134.75 2552.75,-134.75 2552.75,-181.75 2552.75,-181.75 2552.75,-187.75 2546.75,-193.75 2540.75,-193.75"/>
<text xml:space="preserve" text-anchor="middle" x="2456.62" y="-176.45" font-family="Arial" font-size="14.00">Leaf: 1</text>
<text xml:space="preserve" text-anchor="middle" x="2456.62" y="-160.7" font-family="Arial" font-size="14.00">Gini: 0.000</text>
<text xml:space="preserve" text-anchor="middle" x="2456.62" y="-144.95" font-family="Arial" font-size="14.00">Samples: 2</text>
<text xml:space="preserve" text-anchor="middle" x="2456.62" y="-129.2" font-family="Arial" font-size="14.00">Dist: {np.int64(1): np.int64(2)}</text>
</g>
<!-- 1543988437200&#45;&gt;1543988040560 -->
<g id="edge22" class="edge">
<title>1543988437200&#45;&gt;1543988040560</title>
<path fill="none" stroke="black" d="M2301.68,-245.07C2327.33,-230.87 2357.13,-214.36 2383.7,-199.64"/>
<polygon fill="black" stroke="black" points="2385.34,-202.74 2392.39,-194.83 2381.94,-196.61 2385.34,-202.74"/>
<text xml:space="preserve" text-anchor="middle" x="2377.18" y="-214.2" font-family="Arial" font-size="14.00">False</text>
</g>
</g>
</svg>
